#!OML:ASF C:\ViconDB\ViconDB\414\Spring2016\041811\Spring2016.ASF
:FULLY-SPECIFIED
:DEGREES
278
root 8.14818 19.4921 -10.6524 380.419 -19.1228 359.33
lowerback 7.39983 4.71882 -5.38039
upperback -0.7218 5.59725 -3.68819
thorax -5.04511 2.84991 -1.50218
lowerneck -19.0254 -8.38133 -19.2127
upperneck 9.85686 -10.6478 25.7208
head 8.95337 -3.83168 10.8856
rclavicle -2.5842e-014 1.59028e-015
rhumerus -11.3768 -43.5766 -4.10127
rradius 23.8961
rwrist 50.6097
rhand -27.1685 -12.8734
rfingers 7.12502
rthumb -0.582868 -42.8523
lclavicle -2.5842e-014 1.59028e-015
lhumerus -38.0186 -5.06958 3.2506
lradius 20.6349
lwrist -7.87936
lhand -26.049 24.0302
lfingers 7.12502
lthumb 0.498384 54.0093
rfemur -6.25773 -230.043 6.43275
rtibia 21.4879
rfoot -34.7109 -41.611
rtoes -30.8409
lfemur -43.0266 -20.3101 -4.76772
ltibia 26.4653
lfoot -9.03277 -10.0826
ltoes -19.3569
279
root 8.18585 19.4324 -10.6091 380.698 -20.8577 358.615
lowerback 7.82164 4.88837 -5.40733
upperback -0.549765 5.79473 -3.59393
thorax -5.11822 2.94527 -1.44386
lowerneck -18.7846 -8.47944 -19.289
upperneck 9.61157 -10.8411 26.0981
head 8.92113 -3.92542 11.0102
rclavicle -3.37934e-014 4.05521e-014
rhumerus -11.2479 -43.6799 -4.28277
rradius 23.9028
rwrist 50.6314
rhand -26.5686 -13.4575
rfingers 7.12502
rthumb -0.00342864 -43.4373
lclavicle -3.37934e-014 4.05521e-014
lhumerus -37.3676 -5.55401 2.03262
lradius 20.9656
lwrist -8.26425
lhand -27.4681 25.1772
lfingers 7.12502
lthumb -0.872236 55.1552
rfemur -8.38979 -223.515 4.76838
rtibia 20.7626
rfoot -25.0362 -39.9769
rtoes -31.1138
lfemur -43.8323 -18.9972 -5.55572
ltibia 26.8519
lfoot -5.65069 -10.8067
ltoes -14.6159
280
root 8.21701 19.3174 -10.5594 380.848 -22.6842 357.704
lowerback 8.41918 5.14759 -5.30086
upperback -0.551957 6.1003 -3.52374
thorax -5.45968 3.09325 -1.52971
lowerneck -18.2452 -8.64181 -19.036
upperneck 9.67751 -11.2287 25.9762
head 8.91553 -4.14283 10.8428
rclavicle -9.14409e-014 3.33958e-014
rhumerus -11.2217 -43.5417 -4.47394
rradius 23.8642
rwrist 51.1744
rhand -26.7626 -13.4621
rfingers 7.12502
rthumb -0.190801 -43.4418
lclavicle -9.14409e-014 3.33958e-014
lhumerus -36.5902 -7.26909 1.1263
lradius 21.1573
lwrist -7.70049
lhand -28.8937 25.8554
lfingers 7.12502
lthumb -2.24903 55.8233
rfemur -10.5515 -216.741 3.83338
rtibia 20.279
rfoot -15.6629 -38.4829
rtoes -26.7239
lfemur -44.1917 -16.572 -6.94845
ltibia 27.9716
lfoot -4.14155 -11.9999
ltoes -10.4929
281
root 8.23646 19.177 -10.5001 381.039 -24.5804 356.575
lowerback 8.63201 5.41887 -5.37401
upperback -0.394174 6.45873 -3.18922
thorax -5.46693 3.27252 -1.20549
lowerneck -17.6454 -8.76613 -19.4031
upperneck 9.48517 -11.4257 26.2155
head 8.83947 -4.28415 10.9696
rclavicle 1.10127e-013 1.90833e-014
rhumerus -10.5481 -43.0181 -4.89119
rradius 23.8061
rwrist 51.0323
rhand -26.9573 -12.6634
rfingers 7.12502
rthumb -0.378847 -42.6428
lclavicle 1.10127e-013 1.90833e-014
lhumerus -35.973 -8.55943 0.341486
lradius 21.2027
lwrist -7.95625
lhand -29.647 26.4481
lfingers 7.12502
lthumb -2.97659 56.4071
rfemur -12.6764 -216.463 3.38008
rtibia 20.0064
rfoot -16.8797 -38.6528
rtoes -25.969
lfemur -44.3766 -14.9574 -7.41772
ltibia 29.7941
lfoot -5.15349 -9.4441
ltoes -8.22964
282
root 8.26045 19.0058 -10.4271 381.522 -26.3564 355.296
lowerback 8.52995 5.58352 -5.16415
upperback -0.414288 6.72119 -2.92586
thorax -5.44457 3.40025 -1.07494
lowerneck -17.0683 -8.82066 -19.5518
upperneck 9.54481 -11.6096 26.3586
head 8.82308 -4.40967 11.0318
rclavicle 2.34566e-014 -3.97569e-015
rhumerus -9.75766 -42.211 -5.62458
rradius 23.8345
rwrist 50.8816
rhand -26.8901 -13.0468
rfingers 7.12502
rthumb -0.31397 -43.0263
lclavicle 2.34566e-014 -3.97569e-015
lhumerus -35.4884 -10.5204 -0.368327
lradius 21.3778
lwrist -7.32348
lhand -30.2998 26.5186
lfingers 7.12502
lthumb -3.60702 56.4678
rfemur -14.7101 -216.365 3.02983
rtibia 19.7247
rfoot -19.1186 -39.2307
rtoes -25.0019
lfemur -44.4566 -13.1775 -7.71879
ltibia 32.1735
lfoot -7.90164 -8.12244
ltoes -8.53448
283
root 8.28011 18.8301 -10.3515 382.143 -27.952 353.825
lowerback 8.28012 5.71069 -4.94942
upperback -0.444815 6.9575 -2.45536
thorax -5.37537 3.51922 -0.714304
lowerneck -16.3625 -8.89759 -19.6822
upperneck 9.49282 -11.7602 26.1417
head 8.69918 -4.55103 10.9397
rclavicle 3.33958e-014 2.3059e-014
rhumerus -8.9387 -40.699 -6.18243
rradius 23.974
rwrist 49.8016
rhand -26.87 -13.0898
rfingers 7.12502
rthumb -0.294529 -43.0694
lclavicle 3.33958e-014 2.3059e-014
lhumerus -35.0456 -12.1136 -0.953594
lradius 21.5757
lwrist -6.92914
lhand -30.3607 26.2928
lfingers 7.12502
lthumb -3.66576 56.241
rfemur -17.4705 -217.95 2.04013
rtibia 19.3722
rfoot -23.3195 -40.3053
rtoes -22.6078
lfemur -44.7778 -11.2002 -7.84102
ltibia 34.9202
lfoot -10.0008 -8.01847
ltoes -7.83898
284
root 8.30419 18.6715 -10.2599 382.895 -29.4104 352.535
lowerback 7.7744 5.73673 -4.72167
upperback -0.582073 7.06693 -2.11613
thorax -5.25399 3.57617 -0.457996
lowerneck -15.6241 -8.95572 -19.9705
upperneck 9.38667 -11.9355 26.3868
head 8.6166 -4.68774 11.0677
rclavicle -4.53229e-014 3.33958e-014
rhumerus -8.3513 -38.7531 -6.74974
rradius 24.3422
rwrist 48.1824
rhand -26.6962 -13.1929
rfingers 7.12502
rthumb -0.126702 -43.1726
lclavicle -4.53229e-014 3.33958e-014
lhumerus -34.4413 -13.5226 -1.75198
lradius 21.9018
lwrist -6.20763
lhand -29.8768 25.854
lfingers 7.12502
lthumb -3.1985 55.8097
rfemur -19.9589 -218.063 1.01367
rtibia 18.9398
rfoot -25.2748 -41.1534
rtoes -19.7448
lfemur -45.8911 -10.0303 -7.58927
ltibia 37.8974
lfoot -11.7659 -6.55879
ltoes -8.29306
285
root 8.32208 18.5295 -10.1822 383.383 -30.6691 351.601
lowerback 7.60075 5.70842 -4.88187
upperback -0.741603 7.04245 -1.75191
thorax -5.38952 3.57845 0.0127544
lowerneck -14.8459 -9.04617 -20.3565
upperneck 9.23404 -12.1359 26.6223
head 8.52459 -4.84543 11.2056
rclavicle 4.25399e-014 -1.59028e-015
rhumerus -7.79282 -37.376 -7.14952
rradius 24.6125
rwrist 47.0249
rhand -26.4724 -13.1077
rfingers 7.12502
rthumb 0.0894384 -43.0874
lclavicle 4.25399e-014 -1.59028e-015
lhumerus -33.6474 -13.908 -2.7437
lradius 22.2057
lwrist -5.77574
lhand -29.3312 25.2898
lfingers 7.12502
lthumb -2.6716 55.2528
rfemur -22.3336 -216.884 0.0305354
rtibia 18.4791
rfoot -25.2889 -41.7868
rtoes -18.0398
lfemur -47.292 -9.02734 -7.51555
ltibia 40.8717
lfoot -12.6451 -5.95145
ltoes -7.92449
